<svg xmlns="http://www.w3.org/2000/svg" viewBox="0 0 429.653 429.653"><path d="M126.933 32.64L99.52 0 1.493 82.24l27.414 32.64zM428.16 82.347L330.133.107l-27.413 32.64 98.027 82.24zM214.72 45.653c-106.133 0-191.893 85.973-191.893 192s85.76 192 191.893 192 192.107-85.973 192.107-192-85.974-192-192.107-192zm.107 341.334c-82.453 0-149.333-66.88-149.333-149.333S132.373 88.32 214.827 88.32 364.16 155.2 364.16 237.653s-66.773 149.334-149.333 149.334z"/><path d="M225.493 130.987h-32v128l101.227 60.906 16.107-26.346-85.334-50.56z"/></svg>